<svg version="1.1" viewBox="0.0 0.0 250.0 144.0" fill="none" stroke="none" stroke-linecap="square" stroke-miterlimit="10" xmlns:xlink="http://www.w3.org/1999/xlink" xmlns="http://www.w3.org/2000/svg"><clipPath id="p.0"><path d="m0 0l250.0 0l0 144.0l-250.0 0l0 -144.0z" clip-rule="nonzero"/></clipPath><g clip-path="url(#p.0)"><path fill="#ffffff" d="m0 0l250.0 0l0 144.0l-250.0 0z" fill-rule="evenodd"/><path fill="#000000" fill-opacity="0.0" d="m5.4959083 13.185839l237.32283 0l0 111.40158l-237.32283 0z" fill-rule="evenodd"/><path fill="#fa3a3a" d="m50.16778 53.479588q0 -3.21875 -0.125 -5.5q-0.125 -2.28125 -0.296875 -3.828125q-0.171875 -1.546875 -0.296875 -2.5q-0.125 -0.953125 -0.125 -1.46875q0 -0.625 0.65625 -1.046875q0.65625 -0.421875 1.59375 -0.421875q2.15625 0 3.171875 0.875q1.015625 0.859375 1.390625 2.765625q0.171875 0.796875 0.3125 1.71875q0.15625 0.90625 0.265625 2.09375q0.109375 1.171875 0.171875 2.671875q0.0625 1.5 0.0625 3.5q0 7.484375 -0.8125 14.062496q-0.796875 6.578125 -2.203125 12.078125q-1.390625 5.5 -3.3125 9.84375q-1.921875 4.328125 -4.125 7.3125q-2.203125 2.984375 -4.640625 4.5625q-2.421875 1.59375 -4.84375 1.59375q-0.921875 0 -1.96875 -0.375q-1.03125 -0.375 -1.90625 -1.25q-0.859375 -0.859375 -1.4374981 -2.296875q-0.5625 -1.453125 -0.5625 -3.609375l0 -48.781246q-2.921875 0.375 -5.53125 1.65625q-2.59375 1.265625 -4.53125 3.46875q-1.921875 2.1875 -3.046875 5.328125q-1.109375 3.125 -1.109375 7.234375q0 2.6249962 0.546875 4.718746q0.546875 2.09375 1.3125 3.5625q0.765625 1.453125 1.515625 2.265625q0.765625 0.796875 1.1875 0.796875q0.390625 0 0.71875 -0.171875q0.34375 -0.171875 0.6875 -0.171875q0.671875 0 0.671875 1.0625q0 1.34375 -0.609375 2.59375q-0.609375 1.25 -1.546875 2.03125q-0.9375 0.78125 -2.03125 1.0q-1.09375 0.203125 -2.03125 -0.46875q-1.140625 -0.765625 -2.4375 -2.328125q-1.28125 -1.5625 -2.359375 -3.78125q-1.078125 -2.21875 -1.78125 -5.015625q-0.703125 -2.796875 -0.703125 -6.093746q0 -4.578125 1.09375 -8.1875q1.109375 -3.625 2.953125 -6.328125q1.84375 -2.703125 4.296875 -4.609375q2.453125 -1.90625 5.15625 -3.09375q2.703125 -1.1875 5.5 -1.703125q2.796875 -0.53125 5.328123 -0.53125q0.6875 0 1.3125 0.28125q0.640625 0.265625 1.09375 0.75q0.46875 0.484375 0.765625 1.171875q0.296875 0.671875 0.296875 1.4375l0 51.406246q0 0.84375 0.28125 1.03125q0.28125 0.1875 0.53125 0.1875q0.625 0 1.71875 -1.109375q1.109375 -1.125 2.390625 -3.40625q1.296875 -2.296875 2.609375 -5.71875q1.3125 -3.421875 2.375 -8.03125q1.0625 -4.625 1.734375 -10.421875q0.671875 -5.796871 0.671875 -12.812496zm16.966526 4.234375q-1.046875 0 -2.0 -0.421875q-0.953125 -0.4375 -1.6562538 -1.15625q-0.6875 -0.71875 -1.125 -1.65625q-0.421875 -0.953125 -0.421875 -2.0625q0 -1.140625 0.421875 -2.109375q0.4375 -0.984375 1.125 -1.671875q0.7031288 -0.703125 1.6562538 -1.09375q0.953125 -0.40625 2.0 -0.40625q1.15625 0 2.125 0.40625q0.96875 0.390625 1.65625 1.09375q0.703125 0.6875 1.109375 1.671875q0.40625 0.96875 0.40625 2.109375q0 1.109375 -0.40625 2.0625q-0.40625 0.9375 -1.109375 1.65625q-0.6875 0.71875 -1.65625 1.15625q-0.96875 0.421875 -2.125 0.421875zm2.0 34.39062q0 0.296875 0.03125 0.953125q0.046875 0.65625 0.25 1.34375q0.21875 0.671875 0.6875 1.1875q0.46875 0.5 1.3125 0.5q1.265625 0 2.21875 -0.921875q0.953125 -0.9375 1.640625 -2.328125q0.703125 -1.40625 1.171875 -3.03125q0.46875 -1.640625 0.765625 -3.078125q0.25 -1.3125 0.78125 -1.890625q0.53125 -0.59375 1.140625 -0.65625q0.609375 -0.078125 1.21875 0.3125q0.625 0.375 1.109375 1.0q0.484375 0.609375 0.71875 1.375q0.234375 0.75 0.0625 1.4375q-0.59375 2.15625 -1.546875 4.53125q-0.953125 2.359375 -2.4375 4.34375q-1.46875 1.984375 -3.546875 3.296875q-2.078125 1.3125 -4.859375 1.3125q-1.734375 0 -3.09375 -0.65625q-1.359375 -0.65625 -2.296875 -1.75q-0.9218788 -1.09375 -1.4062538 -2.578125q-0.484375 -1.484375 -0.484375 -3.140625l0 -23.140625q0 -1.21875 -0.1875 -1.765625q-0.1875 -0.5625 -0.1875 -1.03125q0 -0.625 0.671875 -1.03125q0.671875 -0.40625 1.6093788 -0.40625q2.15625 0 3.40625 1.125q1.25 1.125 1.25 2.6875l0 22.0zm13.322418 -4.609375q-0.34375 1.359375 -1.28125 1.671875q-0.921875 0.3125 -1.828125 -0.0625q-0.90625 -0.375 -1.53125 -1.3125q-0.609375 -0.9375 -0.34375 -2.03125q0.625 -2.875 1.828125 -6.359375q1.21875 -3.5 2.390625 -6.96875q-0.625 -0.96875 -1.015625 -1.96875q-0.375 -1.0 -0.375 -2.09375q0 -1.09375 0.828125 -2.296875q0.828125 -1.21875 1.984375 -2.2343712q1.171875 -1.015625 2.40625 -1.671875q1.25 -0.65625 2.140625 -0.65625q1.5625 0 2.34375 1.0625q0.796875 1.0625 0.796875 2.8281212q0 0.984375 -0.328125 1.9375q-0.3125 0.953125 -0.703125 1.78125q-0.375 0.8125 -0.6875 1.40625q-0.3125 0.59375 -0.359375 0.765625q1.515625 2.703125 3.171875 4.78125q1.65625 2.078125 3.03125 4.109375q1.375 2.03125 2.25 4.3125q0.890625 2.28125 0.890625 5.375q0 0.75 -0.109375 1.5625q-0.09375 0.796875 -0.3125 1.515625q1.53125 -0.296875 2.6875 -0.921875q1.171875 -0.640625 2.03125 -1.453125q0.875 -0.828125 1.4375 -1.796875q0.578125 -0.984375 0.953125 -2.046875q0.46875 -1.21875 0.9375 -1.765625q0.46875 -0.5625 1.0625 -0.5625q0.546875 0 1.109375 0.359375q0.578125 0.359375 1.015625 0.921875q0.453125 0.546875 0.71875 1.140625q0.28125 0.59375 0.28125 1.046875q0 0.640625 -0.34375 1.53125q-0.328125 0.890625 -0.90625 1.828125q-0.578125 0.921875 -1.296875 1.796875q-0.71875 0.859375 -1.46875 1.5q-2.03125 1.640625 -4.78125 2.765625q-2.75 1.125 -6.8125 1.421875q-1.578125 1.34375 -3.71875 2.203125q-2.125 0.875 -4.796875 0.875q-1.34375 0 -2.765625 -0.34375q-1.421875 -0.328125 -2.71875 -0.859375q-1.28125 -0.53125 -2.34375 -1.171875q-1.046875 -0.625 -1.6875 -1.265625q-1.609375 -1.515625 -2.0625 -3.0625q-0.46875 -1.546875 -0.234375 -2.765625q0.21875 -1.234375 0.890625 -2.015625q0.6875 -0.78125 1.40625 -0.78125q0.421875 0 1.328125 0.359375q0.921875 0.359375 2.09375 0.9375q1.1875 0.5625 2.578125 1.203125q1.40625 0.625 2.796875 1.203125q1.40625 0.578125 2.734375 0.9375q1.328125 0.359375 2.4375 0.359375q0.71875 -0.859375 1.3125 -2.25q0.59375 -1.390625 0.59375 -3.046875q0 -2.03125 -0.5625 -3.765625q-0.546875 -1.734375 -1.4375 -3.21875q-0.890625 -1.484375 -2.015625 -2.765625q-1.109375 -1.296875 -2.25 -2.4375q-1.015625 2.5 -1.78125 4.9375q-0.765625 2.421875 -1.609375 5.515625zm46.552017 14.296875q-1.484375 0 -2.703125 -0.46875q-1.203125 -0.453125 -2.109375 -1.28125q-0.90625 -0.828125 -1.5 -1.9375q-0.59375 -1.125 -0.796875 -2.4375q-1.578125 2.75 -3.6875 4.484375q-2.109375 1.734375 -5.0 1.734375q-2.15625 0 -3.875 -0.890625q-1.703125 -0.890625 -2.890625 -2.515625q-1.1875 -1.625 -1.796875 -3.9375q-0.609375 -2.3125 -0.609375 -5.140625q0 -3.421875 0.484375 -6.890625q0.484375 -3.484375 1.078125 -6.265625q0.671875 -3.265625 1.5625 -6.3125q0.21875 -0.546875 0.3125 -1.109375q0.109375 -0.578125 0.484375 -1.046875q0.390625 -0.46875 1.21875 -0.765625q0.828125 -0.296875 2.5625 -0.296875q1.609375 0 2.0625 0.578125q0.46875 0.578125 0.359375 1.34375q-0.09375 0.75 -0.5 1.5625q-0.40625 0.796875 -0.53125 1.296875q-0.59375 2.421875 -1.0625 4.40625q-0.453125 1.984375 -0.78125 4.0q-0.3125 2.015625 -0.484375 4.203125q-0.171875 2.171875 -0.171875 4.875q0 3.546875 1.03125 5.375q1.046875 1.8125 2.953125 1.8125q1.3125 0 2.421875 -0.96875q1.125 -0.96875 2.03125 -2.59375q0.921875 -1.640625 1.59375 -3.734375q0.671875 -2.09375 1.0625 -4.375l0 -13.96875q0 -0.921875 -0.15625 -1.46875q-0.140625 -0.5625 -0.296875 -0.875q-0.140625 -0.3125 -0.296875 -0.5q-0.140625 -0.203125 -0.140625 -0.453125q0 -0.21875 0.25 -0.375q0.25 -0.171875 0.671875 -0.296875q0.4375 -0.140625 0.921875 -0.203125q0.484375 -0.0625 0.953125 -0.0625q2.15625 0 3.40625 1.125q1.25 1.125 1.25 2.6875l0 22.0q0 0.296875 0.03125 0.953125q0.046875 0.65625 0.25 1.34375q0.21875 0.671875 0.6875 1.1875q0.46875 0.5 1.3125 0.5q1.3125 0 2.265625 -0.921875q0.953125 -0.9375 1.640625 -2.328125q0.703125 -1.40625 1.140625 -3.03125q0.453125 -1.640625 0.75 -3.078125q0.25 -1.34375 0.84375 -1.953125q0.59375 -0.625 1.21875 -0.625q0.515625 0 1.0625 0.328125q0.546875 0.3125 0.984375 0.828125q0.453125 0.5 0.71875 1.140625q0.28125 0.625 0.28125 1.265625q0 0.078125 0 0.203125q0 0.125 -0.078125 0.390625q-0.59375 2.15625 -1.546875 4.53125q-0.953125 2.359375 -2.4375 4.34375q-1.46875 1.984375 -3.546875 3.296875q-2.078125 1.3125 -4.859375 1.3125zm32.19478 -5.703125q1.3125 0 2.265625 -0.921875q0.953125 -0.9375 1.640625 -2.328125q0.703125 -1.40625 1.140625 -3.03125q0.453125 -1.640625 0.75 -3.078125q0.296875 -1.34375 0.859375 -1.953125q0.578125 -0.625 1.25 -0.625q0.515625 0 1.046875 0.328125q0.53125 0.3125 0.96875 0.828125q0.4375 0.5 0.71875 1.140625q0.28125 0.625 0.28125 1.265625q0 0.078125 0 0.203125q0 0.125 -0.09375 0.390625q-0.546875 2.15625 -1.5 4.53125q-0.953125 2.359375 -2.4375 4.34375q-1.46875 1.984375 -3.578125 3.296875q-2.09375 1.3125 -4.875 1.3125q-2.296875 0 -3.984375 -0.96875q-1.6875 -0.96875 -2.65625 -2.578125q-1.3125 1.484375 -3.15625 2.515625q-1.84375 1.03125 -4.296875 1.03125q-2.546875 0 -4.46875 -1.015625q-1.921875 -1.015625 -3.234375 -2.765625q-1.3125 -1.75 -1.96875 -4.140625q-0.65625 -2.390625 -0.65625 -5.140625q0 -5.421875 1.734375 -9.734375q1.734375 -4.3125 4.609375 -7.34375q2.890625 -3.03125 6.578125 -4.640625q3.703125 -1.609375 7.6875 -1.609375q1.78125 0 2.875 0.984375q1.109375 0.96875 1.109375 2.65625q0 1.109375 -0.234375 1.5625q-0.234375 0.4375 -0.875 0.4375q-0.59375 0 -1.234375 -0.078125q-0.625 -0.09375 -1.296875 -0.09375q-2.453125 0 -5.0 1.078125q-2.53125 1.078125 -4.59375 3.296875q-2.046875 2.21875 -3.359375 5.625q-1.3125 3.40625 -1.3125 8.109375q0 3.421875 1.3125 5.265625q1.3125 1.84375 3.59375 1.84375q1.78125 0 2.96875 -1.328125q1.1875 -1.34375 1.90625 -3.15625l0 -13.375q0 -0.640625 -0.078125 -1.0625q-0.0625 -0.421875 -0.125 -0.71875q-0.0625 -0.296875 -0.109375 -0.515625q-0.03125 -0.234375 -0.03125 -0.453125q0 -0.671875 0.65625 -1.078125q0.65625 -0.40625 1.578125 -0.40625q2.171875 0 3.4375 1.125q1.265625 1.125 1.265625 2.6875l0 14.296875q0 0.71875 0.171875 1.421875q0.171875 0.703125 0.5 1.28125q0.34375 0.5625 0.90625 0.921875q0.578125 0.359375 1.34375 0.359375zm12.739151 -22.34375q0.46875 -0.890625 0.90625 -2.390625q0.4375 -1.5 0.84375 -3.3125q0.40625 -1.828125 0.734375 -3.8125q0.34375 -1.9999962 0.59375 -3.8906212q0.265625 -1.90625 0.40625 -3.578125q0.15625 -1.671875 0.15625 -2.859375q0 -4.3125 -0.640625 -6.328125q-0.640625 -2.015625 -1.6875 -2.015625q-0.34375 0 -0.59375 0.34375q-0.25 0.34375 -0.421875 0.875q-0.171875 0.515625 -0.234375 1.140625q-0.0625 0.609375 -0.0625 1.109375l0 24.718746zm12.3125 13.078125q0.25 -1.28125 0.78125 -1.84375q0.53125 -0.578125 1.140625 -0.640625q0.609375 -0.0625 1.234375 0.296875q0.640625 0.359375 1.109375 0.953125q0.46875 0.59375 0.703125 1.34375q0.234375 0.734375 0.0625 1.453125q-0.59375 1.734375 -1.703125 4.0625q-1.09375 2.328125 -2.78125 4.40625q-1.6875 2.0625 -3.984375 3.5q-2.28125 1.4375 -5.234375 1.4375q-2.5 0 -4.40625 -0.828125q-1.90625 -0.8125 -3.203125 -2.3125q-1.28125 -1.515625 -1.9375 -3.609375q-0.65625 -2.09375 -0.65625 -4.671875l0 -39.437496q0 -2.40625 0.609375 -4.453125q0.625 -2.0625 1.703125 -3.515625q1.078125 -1.46875 2.515625 -2.28125q1.4375 -0.828125 3.046875 -0.828125q1.90625 0 3.203125 0.703125q1.3125 0.6875 2.15625 1.828125q0.859375 1.140625 1.34375 2.625q0.484375 1.484375 0.6875 3.03125q0.21875 1.546875 0.265625 3.046875q0.046875 1.5 0.046875 2.71875q0 3.1875 -0.59375 6.671875q-0.59375 3.484375 -1.515625 6.874996q-0.90625 3.390625 -1.984375 6.5q-1.078125 3.109375 -2.078125 5.515625q-0.984375 2.40625 -1.765625 3.9375q-0.78125 1.515625 -1.078125 1.78125l0 5.03125q0 2.625 1.09375 4.296875q1.109375 1.671875 3.515625 1.671875q1.484375 0 2.765625 -0.90625q1.296875 -0.921875 2.28125 -2.296875q1.0 -1.375 1.671875 -3.0q0.6875 -1.625 0.984375 -3.0625zm6.7704926 -13.078125q0.46875 -0.890625 0.90625 -2.390625q0.4375 -1.5 0.84375 -3.3125q0.40625 -1.828125 0.734375 -3.8125q0.34375 -1.9999962 0.59375 -3.8906212q0.265625 -1.90625 0.40625 -3.578125q0.15625 -1.671875 0.15625 -2.859375q0 -4.3125 -0.640625 -6.328125q-0.640625 -2.015625 -1.6875 -2.015625q-0.34375 0 -0.59375 0.34375q-0.25 0.34375 -0.421875 0.875q-0.171875 0.515625 -0.234375 1.140625q-0.0625 0.609375 -0.0625 1.109375l0 24.718746zm12.3125 13.078125q0.25 -1.28125 0.78125 -1.84375q0.53125 -0.578125 1.140625 -0.640625q0.609375 -0.0625 1.234375 0.296875q0.640625 0.359375 1.109375 0.953125q0.46875 0.59375 0.703125 1.34375q0.234375 0.734375 0.0625 1.453125q-0.59375 1.734375 -1.703125 4.0625q-1.09375 2.328125 -2.78125 4.40625q-1.6875 2.0625 -3.984375 3.5q-2.28125 1.4375 -5.234375 1.4375q-2.5 0 -4.40625 -0.828125q-1.90625 -0.8125 -3.203125 -2.3125q-1.28125 -1.515625 -1.9375 -3.609375q-0.65625 -2.09375 -0.65625 -4.671875l0 -39.437496q0 -2.40625 0.609375 -4.453125q0.625 -2.0625 1.703125 -3.515625q1.078125 -1.46875 2.515625 -2.28125q1.4375 -0.828125 3.046875 -0.828125q1.90625 0 3.203125 0.703125q1.3125 0.6875 2.15625 1.828125q0.859375 1.140625 1.34375 2.625q0.484375 1.484375 0.6875 3.03125q0.21875 1.546875 0.265625 3.046875q0.046875 1.5 0.046875 2.71875q0 3.1875 -0.59375 6.671875q-0.59375 3.484375 -1.515625 6.874996q-0.90625 3.390625 -1.984375 6.5q-1.078125 3.109375 -2.078125 5.515625q-0.984375 2.40625 -1.765625 3.9375q-0.78125 1.515625 -1.078125 1.78125l0 5.03125q0 2.625 1.09375 4.296875q1.109375 1.671875 3.515625 1.671875q1.484375 0 2.765625 -0.90625q1.296875 -0.921875 2.28125 -2.296875q1.0 -1.375 1.671875 -3.0q0.6875 -1.625 0.984375 -3.0625zm30.973618 -0.09375q0.375 -1.34375 0.875 -1.953125q0.515625 -0.625 1.1875 -0.625q0.515625 0 1.0625 0.328125q0.546875 0.3125 0.984375 0.828125q0.453125 0.5 0.71875 1.140625q0.28125 0.625 0.28125 1.265625q0 0.078125 0 0.34375q0 0.25 -0.078125 0.5q-1.09375 3.765625 -2.5625 6.671875q-1.453125 2.890625 -3.125 5.171875q-1.671875 2.28125 -3.453125 4.078125q-1.78125 1.796875 -3.546875 3.328125l0 14.984375q0 3.421875 -0.796875 5.765625q-0.78125 2.34375 -2.046875 3.796875q-1.265625 1.46875 -2.875 2.109375q-1.609375 0.640625 -3.265625 0.640625q-1.8125 0 -3.34375 -0.796875q-1.515625 -0.78125 -2.640625 -2.140625q-1.109375 -1.34375 -1.734375 -3.171875q-0.609375 -1.8125 -0.609375 -3.890625q0 -3.296875 0.859375 -5.84375q0.875 -2.53125 2.359375 -4.65625q1.484375 -2.109375 3.421875 -3.953125q1.953125 -1.828125 4.109375 -3.734375l0 -11.0q-1.5625 2.625 -3.640625 4.296875q-2.078125 1.671875 -4.875 1.671875q-2.15625 0 -3.875 -0.890625q-1.703125 -0.890625 -2.890625 -2.515625q-1.1875 -1.625 -1.796875 -3.9375q-0.609375 -2.3125 -0.609375 -5.140625q0 -3.421875 0.484375 -6.890625q0.484375 -3.484375 1.078125 -6.265625q0.671875 -3.265625 1.5625 -6.3125q0.21875 -0.546875 0.3125 -1.109375q0.109375 -0.578125 0.484375 -1.046875q0.390625 -0.46875 1.21875 -0.765625q0.828125 -0.296875 2.5625 -0.296875q1.609375 0 2.0625 0.578125q0.46875 0.578125 0.359375 1.34375q-0.09375 0.75 -0.5 1.5625q-0.40625 0.796875 -0.53125 1.296875q-0.59375 2.421875 -1.0625 4.40625q-0.453125 1.984375 -0.78125 4.0q-0.3125 2.015625 -0.484375 4.203125q-0.171875 2.171875 -0.171875 4.875q0 3.546875 1.03125 5.375q1.046875 1.8125 2.953125 1.8125q1.3125 0 2.421875 -0.96875q1.125 -0.96875 2.03125 -2.59375q0.921875 -1.640625 1.59375 -3.734375q0.671875 -2.09375 1.0625 -4.375l0 -13.96875q0 -1.21875 -0.171875 -1.765625q-0.171875 -0.5625 -0.171875 -1.03125q0 -0.625 0.65625 -1.03125q0.65625 -0.40625 1.59375 -0.40625q2.15625 0 3.40625 1.125q1.25 1.125 1.25 2.6875l0 30.421875q2.359375 -2.625 4.34375 -5.96875q2.0 -3.34375 3.3125 -7.828125zm-16.640625 42.90625q1.015625 0 1.515625 -0.84375q0.515625 -0.84375 0.703125 -1.96875q0.203125 -1.125 0.203125 -2.265625q0 -1.140625 0 -1.765625l0 -9.28125q-2.125 2.125 -3.421875 4.78125q-1.28125 2.671875 -1.28125 6.5625q0 2.03125 0.609375 3.40625q0.625 1.375 1.671875 1.375z" fill-rule="nonzero"/></g></svg>